<?xml version="1.0" encoding="UTF-8"?>
<!--
Copyright (C) 2009/2010/2011 Ulrich Apel.
This work is distributed under the conditions of the Creative Commons
Attribution-Share Alike 3.0 Licence. This means you are free:
* to Share - to copy, distribute and transmit the work
* to Remix - to adapt the work

Under the following conditions:
* Attribution. You must attribute the work by stating your use of KanjiVG in
  your own copyright header and linking to KanjiVG's website
  (http://kanjivg.tagaini.net)
* Share Alike. If you alter, transform, or build upon this work, you may
  distribute the resulting work only under the same or similar license to this
  one.

See http://creativecommons.org/licenses/by-sa/3.0/ for more details.
-->
<!DOCTYPE svg PUBLIC "-//W3C//DTD SVG 1.0//EN" "http://www.w3.org/TR/2001/REC-SVG-20010904/DTD/svg10.dtd">
<svg xmlns="http://www.w3.org/2000/svg" width="109" height="109" viewBox="0 0 109 109">
<g id="kvg:StrokePaths_04e3b-VtLst" style="fill:none;stroke:#000000;stroke-width:3;stroke-linecap:round;stroke-linejoin:round;">
<g id="kvg:04e3b-VtLst">
	<g id="kvg:04e3b-VtLst-g1">
		<g id="kvg:04e3b-VtLst-g2">
			<path id="kvg:04e3b-VtLst-s1" d="M43.27,14.83c4.43,1.66,10.94,6.31,12.04,8.88"/>
		</g>
	</g>
	<g id="kvg:04e3b-VtLst-g3">
		<g id="kvg:04e3b-VtLst-g4">
			<path id="kvg:04e3b-VtLst-s2" d="M26,40.11c0.95,0.48,4.04,0.16,5,0.03c10.5-1.39,34.75-4.94,45.5-5.43c1.46-0.07,2.79,0.1,4,0.5"/>
		</g>
		<path id="kvg:04e3b-VtLst-s3" d="M28.75,65.07c0.94,0.52,4.04,0.34,5,0.23c11.5-1.3,27.58-3.82,40.5-4.68c1.17-0.08,3.75-0.21,5.5,0.25"/>
		<path id="kvg:04e3b-VtLst-s4" d="M15.75,93.51c2.75,0.49,5.7,0.15,7.25,0c21.75-2.06,42-5.26,62.75-5.8c2.5-0.06,5.5,0.49,6.75,0.94"/>
		<path id="kvg:04e3b-VtLst-s5" d="M52.5,39.33c1,1.15,2,3.33,2,4.25c0,6.41,0.5,38.25,0.25,44.67"/>
	</g>
</g>
</g>
<g id="kvg:StrokeNumbers_04e3b-VtLst" style="font-size:8;fill:#808080">
	<text transform="matrix(1 0 0 1 35.25 15.50)">1</text>
	<text transform="matrix(1 0 0 1 17.50 40.63)">2</text>
	<text transform="matrix(1 0 0 1 21.50 66.50)">3</text>
	<text transform="matrix(1 0 0 1 8.50 94.50)">4</text>
	<text transform="matrix(1 0 0 1 46.50 48.50)">5</text>
</g>
</svg>
