<?xml version="1.0" encoding="UTF-8"?>
<!--
Copyright (C) 2009/2010/2011 Ulrich Apel.
This work is distributed under the conditions of the Creative Commons
Attribution-Share Alike 3.0 Licence. This means you are free:
* to Share - to copy, distribute and transmit the work
* to Remix - to adapt the work

Under the following conditions:
* Attribution. You must attribute the work by stating your use of KanjiVG in
  your own copyright header and linking to KanjiVG's website
  (http://kanjivg.tagaini.net)
* Share Alike. If you alter, transform, or build upon this work, you may
  distribute the resulting work only under the same or similar license to this
  one.

See http://creativecommons.org/licenses/by-sa/3.0/ for more details.
-->
<!DOCTYPE svg PUBLIC "-//W3C//DTD SVG 1.0//EN" "http://www.w3.org/TR/2001/REC-SVG-20010904/DTD/svg10.dtd">
<svg xmlns="http://www.w3.org/2000/svg" width="109" height="109" viewBox="0 0 109 109">
<g id="kvg:StrokePaths_05ec9-Kaisho" style="fill:none;stroke:#000000;stroke-width:3;stroke-linecap:round;stroke-linejoin:round;">
<g id="kvg:05ec9-Kaisho">
	<g id="kvg:05ec9-Kaisho-g1">
		<path id="kvg:05ec9-Kaisho-s1" d="M50.45,10.63c2.01,0.64,6.27,4.78,6.66,6.05"/>
		<g id="kvg:05ec9-Kaisho-g2">
			<path id="kvg:05ec9-Kaisho-s2" d="M22.88,23.98c1.52,0.54,4.3,0.63,5.82,0.54c15.8-0.91,37.8-4.52,52.11-5.73c2.52-0.21,4.05,0.26,5.31,0.53"/>
			<path id="kvg:05ec9-Kaisho-s3" d="M27.74,26.75c0.04,1.52,0.09,3.93-0.09,6.12c-1.08,12.9-3.5,44.2-15.1,58.1"/>
		</g>
	</g>
	<g id="kvg:05ec9-Kaisho-g3">
		<g id="kvg:05ec9-Kaisho-g4">
			<g id="kvg:05ec9-Kaisho-g5">
				<path id="kvg:05ec9-Kaisho-s4" d="M43.67,27.73c1.92,0.95,4.97,3.9,5.45,5.38"/>
			</g>
			<g id="kvg:05ec9-Kaisho-g6">
				<path id="kvg:05ec9-Kaisho-s5" d="M65.56,24.14c0.01,0.23,0.03,0.59-0.03,0.92c-0.35,1.94-2.35,6.2-5.1,8.8"/>
			</g>
		</g>
		<g id="kvg:05ec9-Kaisho-g7">
			<path id="kvg:05ec9-Kaisho-s6" d="M33.99,37.43c0.96,0.4,2.73,0.48,3.69,0.4c6.46-0.56,30.53-4.28,40.15-5.07c1.6-0.13,2.56,0.19,3.37,0.39"/>
			<g id="kvg:05ec9-Kaisho-g8">
				<path id="kvg:05ec9-Kaisho-s7" d="M34.96,47.09c1.51,0.21,2.34,0.64,4.32,0.41c10.79-1.23,26.99-3.29,36.7-3.9c1.94-0.12,3.02,1.44,2.59,3.49c-1.16,5.5-1.59,6.85-3.09,16.02"/>
				<path id="kvg:05ec9-Kaisho-s8" d="M32.02,57.57c1.94,0.21,3.46,0.6,5.61,0.41c18.78-1.64,32.62-3.98,45.95-5.23c2.38-0.22,4.32,0.41,5.4,0.62"/>
				<path id="kvg:05ec9-Kaisho-s9" d="M36.26,66.76c1.08,0.12,3.03,0.44,4.32,0.37c11.87-0.62,22.67-2.45,33.47-2.7c1.73-0.04,2.81,0,4.1,0.12"/>
			</g>
			<g id="kvg:05ec9-Kaisho-g9">
				<path id="kvg:05ec9-Kaisho-s10" d="M48.65,38.67c0.99,0.45,1.58,2.04,1.78,2.95c0.2,0.91,0,50.95-0.2,56.63"/>
			</g>
			<g id="kvg:05ec9-Kaisho-g10">
				<path id="kvg:05ec9-Kaisho-s11" d="M61.82,35.94c0.99,0.46,1.58,2.05,1.78,2.95s0,53.76-0.2,59.44"/>
			</g>
			<path id="kvg:05ec9-Kaisho-s12" d="M49.44,68.94c-4.53,8.54-16.32,20.64-25.75,25.47"/>
			<path id="kvg:05ec9-Kaisho-s13" d="M63.76,66.44c4.2,3.43,22.61,19.66,27.17,23.03c1.55,1.15,2.87,1.63,4.42,1.96"/>
		</g>
	</g>
</g>
</g>
<g id="kvg:StrokeNumbers_05ec9-Kaisho" style="font-size:8;fill:#808080">
	<text transform="matrix(1 0 0 1 45.50 10.38)">1</text>
	<text transform="matrix(1 0 0 1 27.50 20.88)">2</text>
	<text transform="matrix(1 0 0 1 20.00 34.30)">3</text>
	<text transform="matrix(1 0 0 1 38.25 31.25)">4</text>
	<text transform="matrix(1 0 0 1 58.25 28.25)">5</text>
	<text transform="matrix(1 0 0 1 32.25 34.25)">6</text>
	<text transform="matrix(1 0 0 1 31.25 46.25)">7</text>
	<text transform="matrix(1 0 0 1 30.25 54.25)">8</text>
	<text transform="matrix(1 0 0 1 29.25 68.25)">9</text>
	<text transform="matrix(1 0 0 1 40.25 44.25)">10</text>
	<text transform="matrix(1 0 0 1 54.25 42.25)">11</text>
	<text transform="matrix(1 0 0 1 33.25 77.25)">12</text>
	<text transform="matrix(1 0 0 1 75.25 74.25)">13</text>
</g>
</svg>
