<?xml version="1.0" encoding="UTF-8"?>
<!--
Copyright (C) 2009/2010/2011 Ulrich Apel.
This work is distributed under the conditions of the Creative Commons
Attribution-Share Alike 3.0 Licence. This means you are free:
* to Share - to copy, distribute and transmit the work
* to Remix - to adapt the work

Under the following conditions:
* Attribution. You must attribute the work by stating your use of KanjiVG in
  your own copyright header and linking to KanjiVG's website
  (http://kanjivg.tagaini.net)
* Share Alike. If you alter, transform, or build upon this work, you may
  distribute the resulting work only under the same or similar license to this
  one.

See http://creativecommons.org/licenses/by-sa/3.0/ for more details.
-->
<!DOCTYPE svg PUBLIC "-//W3C//DTD SVG 1.0//EN" "http://www.w3.org/TR/2001/REC-SVG-20010904/DTD/svg10.dtd">
<svg xmlns="http://www.w3.org/2000/svg" width="109" height="109" viewBox="0 0 109 109">
<g id="kvg:StrokePaths_05fbd-Hyougai" style="fill:none;stroke:#000000;stroke-width:3;stroke-linecap:round;stroke-linejoin:round;">
<g id="kvg:05fbd-Hyougai">
	<g id="kvg:05fbd-Hyougai-g1">
		<path id="kvg:05fbd-Hyougai-s1" d="M28.61,17.75c0,1.38-0.43,2.57-1.03,3.62c-2.54,4.67-7.92,11.69-13.96,17.13"/>
		<g id="kvg:05fbd-Hyougai-g2">
			<path id="kvg:05fbd-Hyougai-s2" d="M30.86,35.5c-0.2,1.3-0.58,2.55-1.13,3.74C26.56,45.23,19.35,54.61,9.5,64"/>
			<path id="kvg:05fbd-Hyougai-s3" d="M22.97,53c0.83,0.83,0.9,2,0.9,2.91c0,0.38-0.04,18.53-0.06,29.59c-0.01,3.94-0.01,6.98-0.01,8"/>
		</g>
	</g>
	<g id="kvg:05fbd-Hyougai-g3">
		<g id="kvg:05fbd-Hyougai-g4">
			<g id="kvg:05fbd-Hyougai-g5">
				<path id="kvg:05fbd-Hyougai-s4" d="M49.98,13.92c0.27,0.33,0.89,1.73,0.89,3.13c0,0.67-0.03,9.82-0.09,13.94"/>
				<path id="kvg:05fbd-Hyougai-s5" d="M37.73,20.89c0.69,0.69,0.66,1.89,0.58,2.61c-0.32,3-0.14,4.1-0.48,7.13c-0.54,2.63-0.11,2.96,1.79,2.74c5.5-0.62,19.16-2.37,22.45-2.55"/>
				<path id="kvg:05fbd-Hyougai-s6" d="M64.19,17.8c0.75,0.76,0.8,2.09,0.58,3.41c-0.9,5.54-1.27,8.04-2.11,12.38"/>
			</g>
			<g id="kvg:05fbd-Hyougai-g6">
				<path id="kvg:05fbd-Hyougai-s7" d="M47.57,36.67c0,1.33-0.51,2.33-1.18,3.22c-2.95,3.92-4.91,6.07-7.57,8.56c-1.08,1.01-1.4,2.54,0.5,3.09c2.58,0.75,5.26,1.97,7.27,3.26"/>
				<path id="kvg:05fbd-Hyougai-s8" d="M58.49,43.13c0,1.12-0.61,2.48-1,2.89c-6.13,6.47-12.85,14.79-20.24,20.48c-2.62,2.03-2.13,3.11,0.71,2.47c4.82-1.09,14.72-3.16,20.91-4.23"/>
				<path id="kvg:05fbd-Hyougai-s9" d="M56.41,57.92c2.52,1.95,5.97,7.45,7.13,11.28"/>
				<path id="kvg:05fbd-Hyougai-s10" d="M47.99,69.53c0.68,0.68,0.94,1.47,0.94,2.84c0,4.97,0.03,12.31,0.04,17.51c0.01,2.33,0.01,4.24,0.01,5.3"/>
				<path id="kvg:05fbd-Hyougai-s11" d="M39.02,78.13c0,0.87-0.32,1.93-0.82,2.73c-1.76,3.13-5.44,8.19-7.7,10.72"/>
				<path id="kvg:05fbd-Hyougai-s12" d="M56.94,74.35c2.74,2.41,5.1,8.02,5.74,10.2"/>
			</g>
		</g>
		<g id="kvg:05fbd-Hyougai-g7">
			<g id="kvg:05fbd-Hyougai-g8">
				<path id="kvg:05fbd-Hyougai-s13" d="M77.69,16.64c0.03,0.78-0.03,2.05-0.32,3.13c-2.75,10.35-6.03,21.5-12.19,31.01"/>
				<path id="kvg:05fbd-Hyougai-s14" d="M74.05,38.39c0.92,0.23,2.62,0.25,3.12,0.22c4.51-0.32,8.21-1.61,14.46-3.08c1.36-0.32,2.76-0.32,4.14-0.19"/>
			</g>
			<g id="kvg:05fbd-Hyougai-g9">
				<g id="kvg:05fbd-Hyougai-g10">
					<path id="kvg:05fbd-Hyougai-s15" d="M84.9,40.38c0.35,1.24,0.66,2.18,0.18,4.46C81,64.12,75,79.25,62.6,92.5"/>
				</g>
				<path id="kvg:05fbd-Hyougai-s16" d="M67.9,53.47c3.34,2.09,13.54,20.84,21.72,31.14c1.93,2.68,4.23,4.96,6.92,6.86"/>
			</g>
		</g>
	</g>
</g>
</g>
<g id="kvg:StrokeNumbers_05fbd-Hyougai" style="font-size:8;fill:#808080">
	<text transform="matrix(1 0 0 1 20.50 16.50)">1</text>
	<text transform="matrix(1 0 0 1 22.50 38.50)">2</text>
	<text transform="matrix(1 0 0 1 16.50 66.50)">3</text>
	<text transform="matrix(1 0 0 1 44.50 10.50)">4</text>
	<text transform="matrix(1 0 0 1 33.50 17.50)">5</text>
	<text transform="matrix(1 0 0 1 60.25 14.50)">6</text>
	<text transform="matrix(1 0 0 1 39.50 41.50)">7</text>
	<text transform="matrix(1 0 0 1 51.50 42.10)">8</text>
	<text transform="matrix(1 0 0 1 57.25 56.50)">9</text>
	<text transform="matrix(1 0 0 1 38.50 76.50)">10</text>
	<text transform="matrix(1 0 0 1 28.25 78.88)">11</text>
	<text transform="matrix(1 0 0 1 59.25 76.80)">12</text>
	<text transform="matrix(1 0 0 1 71.50 12.50)">13</text>
	<text transform="matrix(1 0 0 1 78.25 34.50)">14</text>
	<text transform="matrix(1 0 0 1 74.50 46.58)">15</text>
	<text transform="matrix(1 0 0 1 70.50 55.50)">16</text>
</g>
</svg>
