<?xml version="1.0" encoding="UTF-8"?>
<!--
Copyright (C) 2009/2010/2011 Ulrich Apel.
This work is distributed under the conditions of the Creative Commons
Attribution-Share Alike 3.0 Licence. This means you are free:
* to Share - to copy, distribute and transmit the work
* to Remix - to adapt the work

Under the following conditions:
* Attribution. You must attribute the work by stating your use of KanjiVG in
  your own copyright header and linking to KanjiVG's website
  (http://kanjivg.tagaini.net)
* Share Alike. If you alter, transform, or build upon this work, you may
  distribute the resulting work only under the same or similar license to this
  one.

See http://creativecommons.org/licenses/by-sa/3.0/ for more details.
-->
<!DOCTYPE svg PUBLIC "-//W3C//DTD SVG 1.0//EN" "http://www.w3.org/TR/2001/REC-SVG-20010904/DTD/svg10.dtd">
<svg xmlns="http://www.w3.org/2000/svg" width="109" height="109" viewBox="0 0 109 109">
<g id="kvg:StrokePaths_060dc-Kaisho" style="fill:none;stroke:#000000;stroke-width:3;stroke-linecap:round;stroke-linejoin:round;">
<g id="kvg:060dc-Kaisho">
	<g id="kvg:060dc-Kaisho-g1">
		<path id="kvg:060dc-Kaisho-s1" d="M17.22,36.5c0.03,4.31-2.21,14.14-4.19,17.5"/>
		<path id="kvg:060dc-Kaisho-s2" d="M33.27,32.83c2.75,1.79,7.1,7.35,7.79,10.13"/>
		<path id="kvg:060dc-Kaisho-s3" d="M24.87,17.25c1.09,0.5,1.74,2.25,1.96,3.25c0.22,1,0,68.75-0.22,75"/>
	</g>
	<g id="kvg:060dc-Kaisho-g2">
		<g id="kvg:060dc-Kaisho-g3">
			<g id="kvg:060dc-Kaisho-g4">
				<g id="kvg:060dc-Kaisho-g5">
					<path id="kvg:060dc-Kaisho-s4" d="M47.12,32.81c0.74,0.39,2.1,0.45,2.85,0.39c8.28-0.7,33.79-4.86,39.7-4.97c1.24-0.02,1.98,0.19,2.6,0.38"/>
				</g>
				<g id="kvg:060dc-Kaisho-g6">
					<path id="kvg:060dc-Kaisho-s5" d="M56.52,19.88c0.86,0.51,1.38,2.3,1.55,3.33c0.17,1.02,0.83,15.13,1.43,24.85"/>
				</g>
				<g id="kvg:060dc-Kaisho-g7">
					<path id="kvg:060dc-Kaisho-s6" d="M77.6,14.75c0.86,0.51,1.62,2.29,1.55,3.33C78.75,24,78.25,33,76.69,46.01"/>
				</g>
			</g>
			<path id="kvg:060dc-Kaisho-s7" d="M39.22,50.3c1.07,0.49,3.02,0.6,4.09,0.49c13.2-1.29,36.3-4.48,49.25-4.7c1.78-0.03,2.84,0.23,3.73,0.48"/>
		</g>
		<g id="kvg:060dc-Kaisho-g8">
			<path id="kvg:060dc-Kaisho-s8" d="M54.09,59.89c0.39,0.76,1.22,2.05,1.22,3.06c0,1.01,0,26.06,0,32.81"/>
			<path id="kvg:060dc-Kaisho-s9" d="M55.96,61.42c2.2-0.13,24.5-2.66,26.51-2.81c1.67-0.13,2.75,1.4,2.62,2.15c-0.26,1.52-0.52,31.19-0.52,31.94"/>
			<path id="kvg:060dc-Kaisho-s10" d="M56.35,75.11c4.48,0,9.06-0.72,13.51-1.15c1.51-0.14,3.02-0.29,4.47-0.42"/>
			<path id="kvg:060dc-Kaisho-s11" d="M56.21,89.91c6.08-0.54,19.88-1.08,27.45-1.55"/>
		</g>
	</g>
</g>
</g>
<g id="kvg:StrokeNumbers_060dc-Kaisho" style="font-size:8;fill:#808080">
	<text transform="matrix(1 0 0 1 11.50 36.50)">1</text>
	<text transform="matrix(1 0 0 1 31.50 30.50)">2</text>
	<text transform="matrix(1 0 0 1 15.75 16.63)">3</text>
	<text transform="matrix(1 0 0 1 44.25 29.50)">4</text>
	<text transform="matrix(1 0 0 1 47.50 19.50)">5</text>
	<text transform="matrix(1 0 0 1 68.25 14.50)">6</text>
	<text transform="matrix(1 0 0 1 33.50 50.50)">7</text>
	<text transform="matrix(1 0 0 1 47.25 67.63)">8</text>
	<text transform="matrix(1 0 0 1 58.50 57.50)">9</text>
	<text transform="matrix(1 0 0 1 59.25 70.55)">10</text>
	<text transform="matrix(1 0 0 1 59.25 86.50)">11</text>
</g>
</svg>
