<?xml version="1.0" encoding="UTF-8"?>
<!--
Copyright (C) 2009/2010/2011 Ulrich Apel.
This work is distributed under the conditions of the Creative Commons
Attribution-Share Alike 3.0 Licence. This means you are free:
* to Share - to copy, distribute and transmit the work
* to Remix - to adapt the work

Under the following conditions:
* Attribution. You must attribute the work by stating your use of KanjiVG in
  your own copyright header and linking to KanjiVG's website
  (http://kanjivg.tagaini.net)
* Share Alike. If you alter, transform, or build upon this work, you may
  distribute the resulting work only under the same or similar license to this
  one.

See http://creativecommons.org/licenses/by-sa/3.0/ for more details.
-->
<!DOCTYPE svg PUBLIC "-//W3C//DTD SVG 1.0//EN" "http://www.w3.org/TR/2001/REC-SVG-20010904/DTD/svg10.dtd">
<svg xmlns="http://www.w3.org/2000/svg" width="109" height="109" viewBox="0 0 109 109">
<g id="kvg:StrokePaths_06283-Kaisho" style="fill:none;stroke:#000000;stroke-width:3;stroke-linecap:round;stroke-linejoin:round;">
<g id="kvg:06283-Kaisho">
	<g id="kvg:06283-Kaisho-g1">
		<path id="kvg:06283-Kaisho-s1" d="M11,36.92c2.08,0.25,1.27,0.55,3.5,0.25c5.5-0.75,15.5-2,24.67-3.17"/>
		<path id="kvg:06283-Kaisho-s2" d="M26.77,13.5c0.48,0.92,1.76,2.49,1.76,5.52c0,16.48,0.24,64.94,0.24,69.9c0,14.25-6.32,3.53-7.77,2"/>
		<path id="kvg:06283-Kaisho-s3" d="M12,65.64c2.38,1.39,2.92,0.75,5.3-0.44c1.4-0.7,19.99-10.91,25.95-14.28"/>
	</g>
	<g id="kvg:06283-Kaisho-g2">
		<g id="kvg:06283-Kaisho-g3">
			<path id="kvg:06283-Kaisho-s4" d="M63.65,12.69c3.21,1.73,6.27,7.06,7.5,12.71"/>
			<g id="kvg:06283-Kaisho-g4">
				<g id="kvg:06283-Kaisho-g5">
					<path id="kvg:06283-Kaisho-s5" d="M47,33.28c1.38,0.4,3.62,0.67,4.44,0.59c10.76-0.99,26.99-4.94,40.41-4.94c0.99,0,3.16,0.59,4.15,0.99"/>
				</g>
			</g>
		</g>
		<g id="kvg:06283-Kaisho-g6">
			<g id="kvg:06283-Kaisho-g7">
				<path id="kvg:06283-Kaisho-s6" d="M67.5,35.08c0.88,1.01,1,2.64,1,4.53c0,9.93-0.28,45.95-0.28,58.45"/>
				<path id="kvg:06283-Kaisho-s7" d="M71.28,50.02c4.3,2.19,17.83,11.36,19.71,15.16"/>
			</g>
		</g>
	</g>
</g>
</g>
<g id="kvg:StrokeNumbers_06283-Kaisho" style="font-size:8;fill:#808080">
	<text transform="matrix(1 0 0 1 3.50 36.50)">1</text>
	<text transform="matrix(1 0 0 1 18.50 13.50)">2</text>
	<text transform="matrix(1 0 0 1 3.50 66.50)">3</text>
	<text transform="matrix(1 0 0 1 57.00 13.90)">4</text>
	<text transform="matrix(1 0 0 1 44.50 30.33)">5</text>
	<text transform="matrix(1 0 0 1 59.50 43.00)">6</text>
	<text transform="matrix(1 0 0 1 72.50 47.93)">7</text>
</g>
</svg>
