<?xml version="1.0" encoding="UTF-8"?>
<!--
Copyright (C) 2009/2010/2011 Ulrich Apel.
This work is distributed under the conditions of the Creative Commons
Attribution-Share Alike 3.0 Licence. This means you are free:
* to Share - to copy, distribute and transmit the work
* to Remix - to adapt the work

Under the following conditions:
* Attribution. You must attribute the work by stating your use of KanjiVG in
  your own copyright header and linking to KanjiVG's website
  (http://kanjivg.tagaini.net)
* Share Alike. If you alter, transform, or build upon this work, you may
  distribute the resulting work only under the same or similar license to this
  one.

See http://creativecommons.org/licenses/by-sa/3.0/ for more details.
-->
<!DOCTYPE svg PUBLIC "-//W3C//DTD SVG 1.0//EN" "http://www.w3.org/TR/2001/REC-SVG-20010904/DTD/svg10.dtd">
<svg xmlns="http://www.w3.org/2000/svg" width="109" height="109" viewBox="0 0 109 109">
<g id="kvg:StrokePaths_06a84-Kaisho" style="fill:none;stroke:#000000;stroke-width:3;stroke-linecap:round;stroke-linejoin:round;">
<g id="kvg:06a84-Kaisho">
	<g id="kvg:06a84-Kaisho-g1">
		<path id="kvg:06a84-Kaisho-s1" d="M10.28,36.72c0.35,0.24,2.39,0.41,3.31,0.31c3.94-0.41,13.12-1.21,19.45-2.41c0.92-0.17,2.15-0.24,2.73,0"/>
		<path id="kvg:06a84-Kaisho-s2" d="M25.36,14.5c0.91,0.47,2.04,2.25,2.04,4.42c0,0.95-0.3,65.75-0.3,71.58c0,11.25-5.47,2.62-6.85,1.25"/>
		<path id="kvg:06a84-Kaisho-s3" d="M26.94,39.28c-5.1,15.04-7.94,21.4-15.83,34.56"/>
		<path id="kvg:06a84-Kaisho-s4" d="M29.47,47.9c2.78,3.35,5.03,7.6,6.28,11.85"/>
	</g>
	<g id="kvg:06a84-Kaisho-g2">
		<g id="kvg:06a84-Kaisho-g3">
			<g id="kvg:06a84-Kaisho-g4">
				<g id="kvg:06a84-Kaisho-g5">
					<path id="kvg:06a84-Kaisho-s5" d="M49.76,13c0.23,0.42,0.27,0.93,0.21,1.29c-0.32,2.15-3.12,7.29-5.67,10.17"/>
				</g>
				<g id="kvg:06a84-Kaisho-g6">
					<path id="kvg:06a84-Kaisho-s6" d="M39.5,25c0.36,0.53,0.73,1.3,0.73,2c0,0.71,2.24,17.51,2.39,21"/>
					<path id="kvg:06a84-Kaisho-s7" d="M40.95,26.25c2.06-0.09,17.73-1.91,19.61-2.01c1.57-0.09,3.77,0.79,3.45,2.62c-0.76,4.4-1.51,11.65-2.76,20.02"/>
					<path id="kvg:06a84-Kaisho-s8" d="M42.31,35.85c3.15-0.34,6.31-0.59,9.47-0.78c0.85-0.05,1.7-0.1,2.57-0.14"/>
					<path id="kvg:06a84-Kaisho-s9" d="M42.73,46.03c6.02-0.78,11.27-0.78,17.93-1.48"/>
				</g>
			</g>
			<g id="kvg:06a84-Kaisho-g7">
				<g id="kvg:06a84-Kaisho-g8">
					<g id="kvg:06a84-Kaisho-g9">
						<path id="kvg:06a84-Kaisho-s10" d="M49.88,49.25c1.62,1.25,2.87,2.25,4.16,3.97"/>
						<path id="kvg:06a84-Kaisho-s11" d="M39.94,57.69c0.85,0.06,2.79,0.41,3.61,0.33c9.59-0.99,13.95-1.52,19.85-1.7c1.4-0.04,2.11-0.47,3.16-0.08"/>
					</g>
					<g id="kvg:06a84-Kaisho-g10">
						<path id="kvg:06a84-Kaisho-s12" d="M52.15,64.27c3.35,1.73,7.1,2.23,9.73,3.29c1.89,0.76,2.6,1.79,2.49,3.02c-0.3,3.25-7.32,21.04-9.86,23.67c-2.76,2.86-4.26-0.5-4.92-2.49"/>
						<path id="kvg:06a84-Kaisho-s13" d="M51.52,60.48c0.05,0.69,0.17,1.81-0.1,2.79c-1.99,7.37-6.73,19.1-17.54,26.67"/>
					</g>
				</g>
				<g id="kvg:06a84-Kaisho-g11">
					<g id="kvg:06a84-Kaisho-g12">
						<path id="kvg:06a84-Kaisho-s14" d="M78.78,15.64c0.03,0.8,0.13,2.11-0.06,3.23C77.47,26,74.23,39.91,67.75,49.75"/>
						<path id="kvg:06a84-Kaisho-s15" d="M77.03,35.84c0.41,0.14,1.17,0.16,1.58,0.14c4.29-0.16,13.96-1.72,18.04-2c0.73-0.05,1.19-0.01,1.38,0.03"/>
					</g>
					<g id="kvg:06a84-Kaisho-g13">
						<g id="kvg:06a84-Kaisho-g14">
							<path id="kvg:06a84-Kaisho-s16" d="M89.68,39.93c0.47,1.39,0.72,2.38,0.23,4.92C85.47,67.9,76.47,87.23,60.73,96.5"/>
						</g>
						<path id="kvg:06a84-Kaisho-s17" d="M71.5,47.4c4.69,8.37,16.21,35.73,23.2,45.15c1.34,1.81,2.2,2.11,3.3,2.31"/>
					</g>
				</g>
			</g>
		</g>
	</g>
</g>
</g>
<g id="kvg:StrokeNumbers_06a84-Kaisho" style="font-size:8;fill:#808080">
	<text transform="matrix(1 0 0 1 4.50 37.50)">1</text>
	<text transform="matrix(1 0 0 1 16.66 14.50)">2</text>
	<text transform="matrix(1 0 0 1 17.71 45.50)">3</text>
	<text transform="matrix(1 0 0 1 30.50 47.50)">4</text>
	<text transform="matrix(1 0 0 1 42.50 13.50)">5</text>
	<text transform="matrix(1 0 0 1 32.50 29.50)">6</text>
	<text transform="matrix(1 0 0 1 53.25 22.50)">7</text>
	<text transform="matrix(1 0 0 1 46.50 33.50)">8</text>
	<text transform="matrix(1 0 0 1 46.50 43.50)">9</text>
	<text transform="matrix(1 0 0 1 55.50 53.50)">10</text>
	<text transform="matrix(1 0 0 1 38.50 55.50)">11</text>
	<text transform="matrix(1 0 0 1 56.25 64.50)">12</text>
	<text transform="matrix(1 0 0 1 40.50 66.73)">13</text>
	<text transform="matrix(1 0 0 1 67.50 16.50)">14</text>
	<text transform="matrix(1 0 0 1 79.50 32.50)">15</text>
	<text transform="matrix(1 0 0 1 78.50 43.50)">16</text>
	<text transform="matrix(1 0 0 1 75.25 52.50)">17</text>
</g>
</svg>
