<?xml version="1.0" encoding="UTF-8"?>
<!--
Copyright (C) 2009/2010/2011 Ulrich Apel.
This work is distributed under the conditions of the Creative Commons
Attribution-Share Alike 3.0 Licence. This means you are free:
* to Share - to copy, distribute and transmit the work
* to Remix - to adapt the work

Under the following conditions:
* Attribution. You must attribute the work by stating your use of KanjiVG in
  your own copyright header and linking to KanjiVG's website
  (http://kanjivg.tagaini.net)
* Share Alike. If you alter, transform, or build upon this work, you may
  distribute the resulting work only under the same or similar license to this
  one.

See http://creativecommons.org/licenses/by-sa/3.0/ for more details.
-->
<!DOCTYPE svg PUBLIC "-//W3C//DTD SVG 1.0//EN" "http://www.w3.org/TR/2001/REC-SVG-20010904/DTD/svg10.dtd">
<svg xmlns="http://www.w3.org/2000/svg" width="109" height="109" viewBox="0 0 109 109">
<g id="kvg:StrokePaths_0871c-KaishoTen3" style="fill:none;stroke:#000000;stroke-width:3;stroke-linecap:round;stroke-linejoin:round;">
<g id="kvg:0871c-KaishoTen3">
	<g id="kvg:0871c-KaishoTen3-g1">
		<g id="kvg:0871c-KaishoTen3-g2">
			<path id="kvg:0871c-KaishoTen3-s1" d="M50,8.54c2.5,1.46,4.5,3.71,6.3,7.33"/>
			<g id="kvg:0871c-KaishoTen3-g3">
				<path id="kvg:0871c-KaishoTen3-s2" d="M22.12,21.1c0,3.5-3.01,13.25-4.38,15.63"/>
				<path id="kvg:0871c-KaishoTen3-s3" d="M23.94,24.63c9.45-1.38,53.88-5,61.55-5.69c11.98-1.08,2.54,7.1-0.44,9.35"/>
			</g>
		</g>
		<g id="kvg:0871c-KaishoTen3-g4">
			<g id="kvg:0871c-KaishoTen3-g5">
				<path id="kvg:0871c-KaishoTen3-s4" d="M65.8,28.31c0.11,0.73,0.13,1.87-0.21,2.95C62.78,40,43.06,56.37,21.25,63.5"/>
			</g>
			<g id="kvg:0871c-KaishoTen3-g6">
				<path id="kvg:0871c-KaishoTen3-s5" d="M33.74,30.66C41.06,43.92,49.1,53.35,75.5,53.09c9.31-0.09,7.04-3.27,3.18-6.05"/>
				<path id="kvg:0871c-KaishoTen3-s6" d="M46.94,30.7c1.14,2.09,4.12,6.76,4.83,3.81"/>
				<path id="kvg:0871c-KaishoTen3-s7" d="M27.84,36.29c0.19,1.74-1.88,9.43-3.38,12.33"/>
				<path id="kvg:0871c-KaishoTen3-s8" d="M75.19,32.97c4.51,1.85,9.87,5.64,11.56,9.25"/>
			</g>
		</g>
	</g>
	<g id="kvg:0871c-KaishoTen3-g7">
		<g id="kvg:0871c-KaishoTen3-g8">
			<g id="kvg:0871c-KaishoTen3-g9">
				<path id="kvg:0871c-KaishoTen3-s9" d="M30.14,64.54c0.52,0.34,0.89,1.18,0.99,1.63c0.71,3.25,1.44,7.54,2.43,13.69"/>
				<path id="kvg:0871c-KaishoTen3-s10" d="M31.51,66.85c7.95-0.65,41.85-4.53,47.6-4.77c2.24-0.1,2.34,1.04,2.12,2.48c-0.52,3.36-1.33,4.8-2.88,10.34"/>
				<path id="kvg:0871c-KaishoTen3-s11" d="M33.85,78.55c6.4-0.65,37.59-3.16,46.53-3.77"/>
			</g>
			<g id="kvg:0871c-KaishoTen3-g10">
				<path id="kvg:0871c-KaishoTen3-s12" d="M52.46,55.61c0.88,0.34,1.4,1.53,1.58,2.21c0.18,0.68,0,29.43-0.17,33.68"/>
			</g>
		</g>
		<path id="kvg:0871c-KaishoTen3-s13" d="M25.32,95.34c1.12,0.71,2.8,1.6,3.92,1.42c1.12-0.18,42.15-8.35,49.11-9.77"/>
		<path id="kvg:0871c-KaishoTen3-s14" d="M73.01,81.97c4.37,2.77,11.28,11.38,12.37,15.68"/>
	</g>
</g>
</g>
<g id="kvg:StrokeNumbers_0871c-KaishoTen3" style="font-size:8;fill:#808080">
	<text transform="matrix(1 0 0 1 44.50 8.50)">1</text>
	<text transform="matrix(1 0 0 1 15.50 23.50)">2</text>
	<text transform="matrix(1 0 0 1 26.50 21.50)">3</text>
	<text transform="matrix(1 0 0 1 58.50 29.50)">4</text>
	<text transform="matrix(1 0 0 1 28.50 31.50)">5</text>
	<text transform="matrix(1 0 0 1 40.50 30.05)">6</text>
	<text transform="matrix(1 0 0 1 23.50 37.63)">7</text>
	<text transform="matrix(1 0 0 1 72.75 30.13)">8</text>
	<text transform="matrix(1 0 0 1 23.50 72.50)">9</text>
	<text transform="matrix(1 0 0 1 33.75 64.63)">10</text>
	<text transform="matrix(1 0 0 1 36.50 75.50)">11</text>
	<text transform="matrix(1 0 0 1 43.50 59.50)">12</text>
	<text transform="matrix(1 0 0 1 14.50 99.50)">13</text>
	<text transform="matrix(1 0 0 1 61.50 85.50)">14</text>
</g>
</svg>
