<?xml version="1.0" encoding="UTF-8"?>
<!--
Copyright (C) 2009/2010/2011 Ulrich Apel.
This work is distributed under the conditions of the Creative Commons
Attribution-Share Alike 3.0 Licence. This means you are free:
* to Share - to copy, distribute and transmit the work
* to Remix - to adapt the work

Under the following conditions:
* Attribution. You must attribute the work by stating your use of KanjiVG in
  your own copyright header and linking to KanjiVG's website
  (http://kanjivg.tagaini.net)
* Share Alike. If you alter, transform, or build upon this work, you may
  distribute the resulting work only under the same or similar license to this
  one.

See http://creativecommons.org/licenses/by-sa/3.0/ for more details.
-->
<!DOCTYPE svg PUBLIC "-//W3C//DTD SVG 1.0//EN" "http://www.w3.org/TR/2001/REC-SVG-20010904/DTD/svg10.dtd">
<svg xmlns="http://www.w3.org/2000/svg" width="109" height="109" viewBox="0 0 109 109">
<g id="kvg:StrokePaths_09017-Hyougai" style="fill:none;stroke:#000000;stroke-width:3;stroke-linecap:round;stroke-linejoin:round;">
<g id="kvg:09017-Hyougai">
	<g id="kvg:09017-Hyougai-g1">
		<g id="kvg:09017-Hyougai-g2">
			<path id="kvg:09017-Hyougai-s1" d="M43.87,19.84c2.63,0.5,5.26,0.49,7.9-0.03c7.21-0.76,16.72-2.28,27.74-2.68c2.44-0.26,4.87-0.18,7.28,0.25"/>
		</g>
		<g id="kvg:09017-Hyougai-g3">
			<g id="kvg:09017-Hyougai-g4">
				<path id="kvg:09017-Hyougai-s2" d="M47.29,31.42c0.83,0.83,1.11,1.7,1.32,2.71c0.61,2.85,1.76,6.55,2.48,10.25c0.66,3.37,0.96,4.76,1.46,6.91"/>
				<path id="kvg:09017-Hyougai-s3" d="M49.12,32.44c6.72-0.57,23.58-2.75,29.98-3.12c2.61-0.15,4.52,1.53,3.74,4.09c-0.62,2.04-1.02,3.59-2.89,11.39"/>
				<path id="kvg:09017-Hyougai-s4" d="M53.45,48.47c5.12-0.36,14.48-1.58,22.29-2.14c2.19-0.16,4.17-0.26,5.78-0.28"/>
			</g>
			<path id="kvg:09017-Hyougai-s5" d="M50.66,56.43c2.28,2.31,5.63,9.26,6.21,12.86"/>
			<path id="kvg:09017-Hyougai-s6" d="M80.2,52.97c0.19,1.11,0.1,2.08-0.33,3.1c-1.74,4.18-2.99,7.8-6.99,14.79"/>
			<path id="kvg:09017-Hyougai-s7" d="M43.73,75.85c3.71,0.67,7.34,0.4,11.11-0.09c9.65-1.26,18.98-1.8,28.15-2.29c3.36-0.19,6.7-0.05,10.03,0.43"/>
		</g>
	</g>
	<g id="kvg:09017-Hyougai-g5">
		<path id="kvg:09017-Hyougai-s8" d="M20.96,19.25c4.17,2.25,8.54,6.5,10.29,10.13"/>
		<path id="kvg:09017-Hyougai-s9" d="M13,50.75c2.25,1,3.76,0.55,4.75,0.25c4.5-1.38,6.75-2.38,10.5-4C29.7,46.37,32,48.25,31,49.75s-4,7.5-4.75,8.75s-0.75,3.25,0.75,5s2.5,3.25,4,5.25c1.01,1.34,0.75,3.25-0.75,4.5s-7.62,6.38-10.5,8.38"/>
		<path id="kvg:09017-Hyougai-s10" d="M15.25,83.25c7.58-1.26,13.32-1.09,20.77,0.76c9.34,2.31,23.98,6.29,27.23,7.24c12,3.5,18.25,4,27.12,3.88"/>
	</g>
</g>
</g>
<g id="kvg:StrokeNumbers_09017-Hyougai" style="font-size:8;fill:#808080">
	<text transform="matrix(1 0 0 1 37.50 20.50)">1</text>
	<text transform="matrix(1 0 0 1 37.50 33.50)">2</text>
	<text transform="matrix(1 0 0 1 50.50 29.50)">3</text>
	<text transform="matrix(1 0 0 1 55.50 44.50)">4</text>
	<text transform="matrix(1 0 0 1 43.50 60.50)">5</text>
	<text transform="matrix(1 0 0 1 70.50 55.50)">6</text>
	<text transform="matrix(1 0 0 1 38.44 73.50)">7</text>
	<text transform="matrix(1 0 0 1 12.50 18.50)">8</text>
	<text transform="matrix(1 0 0 1 5.44 49.53)">9</text>
	<text transform="matrix(1 0 0 1 5.50 84.50)">10</text>
</g>
</svg>
